<svg id="Group_674" data-name="Group 674" xmlns="http://www.w3.org/2000/svg" width="26.445" height="24.858" viewBox="0 0 26.445 24.858">
  <path id="Path_665" data-name="Path 665" d="M956.2,3287.6a5.764,5.764,0,0,0,1.664,4.054l-.607,2.692h.947l.455-2.018a5.744,5.744,0,0,0,3.325,1.055h11.76a5.747,5.747,0,0,0,3.325-1.055l.454,2.018h.947l-.607-2.692a5.764,5.764,0,0,0,1.664-4.054v-2.223h1.559v-.924H957.125v-13.344a.7.7,0,0,1,.7-.7h.608a1.7,1.7,0,0,1,1.206.5l1.06,1.06a2.806,2.806,0,0,0,.1,3.851l.82.82,4.473-4.473-.82-.82a2.8,2.8,0,0,0-3.927-.035l-1.056-1.056a2.611,2.611,0,0,0-1.858-.77h-.608a1.624,1.624,0,0,0-1.623,1.622v13.344h-1.559v.924H956.2Zm7.09-16.149a1.867,1.867,0,0,1,1.33.551l.166.166-3.167,3.167-.166-.166a1.881,1.881,0,0,1,0-2.658l.509-.509A1.864,1.864,0,0,1,963.29,3271.452Zm-6.166,13.926H978.6v2.223a4.865,4.865,0,0,1-4.859,4.859h-11.76a4.865,4.865,0,0,1-4.86-4.859Z" transform="translate(-954.642 -3269.489)" fill="#606161"/>
  <path id="Path_666" data-name="Path 666" d="M961.819,3290.7h1.837v-.924h-1.837a3.015,3.015,0,0,1-3.012-3.011v-.838h-.924v.838A3.941,3.941,0,0,0,961.819,3290.7Z" transform="translate(-954.476 -3268.649)" fill="#606161"/>
  <rect id="Rectangle_461" data-name="Rectangle 461" width="0.924" height="0.924" transform="translate(10.105 21.124)" fill="#606161"/>
  <rect id="Rectangle_462" data-name="Rectangle 462" width="0.924" height="12.419" transform="matrix(0.687, -0.727, 0.727, 0.687, 12.135, 4.473)" fill="#606161"/>
  <rect id="Rectangle_463" data-name="Rectangle 463" width="0.924" height="9.565" transform="matrix(0.687, -0.727, 0.727, 0.687, 10.162, 6.434)" fill="#606161"/>
  <rect id="Rectangle_464" data-name="Rectangle 464" width="0.924" height="6.725" transform="translate(8.205 8.384) rotate(-46.612)" fill="#606161"/>
</svg>
