<svg id="Calendar" xmlns="http://www.w3.org/2000/svg" width="22.393" height="22.392" viewBox="0 0 22.393 22.392">
  <g id="Group_486" data-name="Group 486">
    <path id="Path_457" data-name="Path 457" d="M658.025,904.78v20.959h22.393V904.78Zm21.317,19.884H659.1v-18.81h20.243Z" transform="translate(-658.025 -903.346)" fill="#d8751b"/>
    <rect id="Rectangle_335" data-name="Rectangle 335" width="1.075" height="3.583" transform="translate(4.915)" fill="#d8751b"/>
    <rect id="Rectangle_336" data-name="Rectangle 336" width="1.075" height="3.583" transform="translate(16.402)" fill="#d8751b"/>
    <rect id="Rectangle_337" data-name="Rectangle 337" width="1.075" height="1.075" transform="translate(4.915 7.546)" fill="#d8751b"/>
    <rect id="Rectangle_338" data-name="Rectangle 338" width="1.075" height="1.075" transform="translate(8.744 7.546)" fill="#d8751b"/>
    <rect id="Rectangle_339" data-name="Rectangle 339" width="1.075" height="1.075" transform="translate(12.573 7.546)" fill="#d8751b"/>
    <rect id="Rectangle_340" data-name="Rectangle 340" width="1.075" height="1.075" transform="translate(16.402 7.546)" fill="#d8751b"/>
    <rect id="Rectangle_341" data-name="Rectangle 341" width="1.075" height="1.075" transform="translate(4.915 11.375)" fill="#d8751b"/>
    <rect id="Rectangle_342" data-name="Rectangle 342" width="1.075" height="1.075" transform="translate(8.744 11.375)" fill="#d8751b"/>
    <rect id="Rectangle_343" data-name="Rectangle 343" width="1.075" height="1.075" transform="translate(12.573 11.375)" fill="#d8751b"/>
    <rect id="Rectangle_344" data-name="Rectangle 344" width="1.075" height="1.075" transform="translate(16.402 11.375)" fill="#d8751b"/>
    <rect id="Rectangle_345" data-name="Rectangle 345" width="1.075" height="1.075" transform="translate(4.915 15.205)" fill="#d8751b"/>
    <rect id="Rectangle_346" data-name="Rectangle 346" width="1.075" height="1.075" transform="translate(8.744 15.205)" fill="#d8751b"/>
    <rect id="Rectangle_347" data-name="Rectangle 347" width="1.075" height="1.075" transform="translate(12.573 15.205)" fill="#d8751b"/>
    <rect id="Rectangle_348" data-name="Rectangle 348" width="1.075" height="1.075" transform="translate(16.402 15.205)" fill="#d8751b"/>
  </g>
</svg>
