<svg xmlns="http://www.w3.org/2000/svg" width="34.555" height="32.129" viewBox="0 0 34.555 32.129">
  <g id="calender-icon-01" transform="translate(-6048.181 -1554.467)">
    <path id="Path_115" data-name="Path 115" d="M6082.385,1557.37H6079V1555.8a1.337,1.337,0,0,0-1.336-1.336h-1.7a1.338,1.338,0,0,0-1.337,1.336v1.567h-6.972V1555.8a1.338,1.338,0,0,0-1.337-1.336h-1.7a1.338,1.338,0,0,0-1.337,1.336v1.567H6056.3V1555.8a1.338,1.338,0,0,0-1.337-1.336h-1.7a1.338,1.338,0,0,0-1.337,1.336v1.567h-3.389a.351.351,0,0,0-.351.352v28.522a.351.351,0,0,0,.351.352h33.853a.351.351,0,0,0,.351-.352v-28.522A.351.351,0,0,0,6082.385,1557.37Zm-7.063-1.567a.635.635,0,0,1,.634-.634h1.7a.636.636,0,0,1,.634.634v3.6a.635.635,0,0,1-.634.634h-1.7a.634.634,0,0,1-.634-.634Zm-11.349,0a.635.635,0,0,1,.634-.634h1.7a.635.635,0,0,1,.634.634v3.6a.635.635,0,0,1-.634.634h-1.7a.635.635,0,0,1-.634-.634Zm-11.349,0a.636.636,0,0,1,.634-.634h1.7a.636.636,0,0,1,.634.634v3.6a.635.635,0,0,1-.634.634h-1.7a.635.635,0,0,1-.634-.634Zm29.409,30.09h-33.15v-27.82h3.038v1.328a1.339,1.339,0,0,0,1.337,1.337h1.7a1.339,1.339,0,0,0,1.337-1.337v-1.328h6.972v1.328a1.339,1.339,0,0,0,1.337,1.337h1.7a1.339,1.339,0,0,0,1.337-1.337v-1.328h6.972v1.328a1.339,1.339,0,0,0,1.337,1.337h1.7A1.338,1.338,0,0,0,6079,1559.4v-1.328h3.038Z" fill="#606060"/>
    <path id="Path_116" data-name="Path 116" d="M6055.047,1564.043h-4.057a.352.352,0,0,0-.352.352v4.057a.351.351,0,0,0,.352.351h4.057a.351.351,0,0,0,.351-.351V1564.4A.352.352,0,0,0,6055.047,1564.043Zm-.352,4.057h-3.354v-3.354h3.354Z" fill="#606060"/>
    <path id="Path_117" data-name="Path 117" d="M6061.267,1564.043h-4.057a.353.353,0,0,0-.352.352v4.057a.352.352,0,0,0,.352.351h4.057a.351.351,0,0,0,.351-.351V1564.4A.352.352,0,0,0,6061.267,1564.043Zm-.352,4.057h-3.354v-3.354h3.354Z" fill="#606060"/>
    <path id="Path_118" data-name="Path 118" d="M6067.487,1564.043h-4.057a.352.352,0,0,0-.351.352v4.057a.351.351,0,0,0,.351.351h4.057a.351.351,0,0,0,.351-.351V1564.4A.352.352,0,0,0,6067.487,1564.043Zm-.351,4.057h-3.355v-3.354h3.355Z" fill="#606060"/>
    <path id="Path_119" data-name="Path 119" d="M6073.707,1564.043h-4.057a.352.352,0,0,0-.351.352v4.057a.351.351,0,0,0,.351.351h4.057a.352.352,0,0,0,.352-.351V1564.4A.353.353,0,0,0,6073.707,1564.043Zm-.351,4.057H6070v-3.354h3.354Z" fill="#606060"/>
    <path id="Path_120" data-name="Path 120" d="M6075.519,1564.4v4.057a.351.351,0,0,0,.351.351h4.057a.351.351,0,0,0,.352-.351V1564.4a.352.352,0,0,0-.352-.352h-4.057A.352.352,0,0,0,6075.519,1564.4Zm.7.351h3.354v3.354h-3.354Z" fill="#606060"/>
    <path id="Path_121" data-name="Path 121" d="M6055.047,1570.73h-4.057a.351.351,0,0,0-.352.351v4.058a.351.351,0,0,0,.352.351h4.057a.351.351,0,0,0,.351-.351v-4.058A.351.351,0,0,0,6055.047,1570.73Zm-.352,4.057h-3.354v-3.354h3.354Z" fill="#606060"/>
    <path id="Path_122" data-name="Path 122" d="M6061.267,1570.73h-4.057a.352.352,0,0,0-.352.351v4.058a.352.352,0,0,0,.352.351h4.057a.351.351,0,0,0,.351-.351v-4.058A.351.351,0,0,0,6061.267,1570.73Zm-.352,4.057h-3.354v-3.354h3.354Z" fill="#606060"/>
    <path id="Path_123" data-name="Path 123" d="M6067.487,1570.73h-4.057a.351.351,0,0,0-.351.351v4.058a.351.351,0,0,0,.351.351h4.057a.351.351,0,0,0,.351-.351v-4.058A.351.351,0,0,0,6067.487,1570.73Zm-.351,4.057h-3.355v-3.354h3.355Z" fill="#606060"/>
    <path id="Path_124" data-name="Path 124" d="M6073.707,1570.73h-4.057a.351.351,0,0,0-.351.351v4.058a.351.351,0,0,0,.351.351h4.057a.352.352,0,0,0,.352-.351v-4.058A.352.352,0,0,0,6073.707,1570.73Zm-.351,4.057H6070v-3.354h3.354Z" fill="#606060"/>
    <path id="Path_125" data-name="Path 125" d="M6079.927,1570.73h-4.057a.351.351,0,0,0-.351.351v4.058a.351.351,0,0,0,.351.351h4.057a.351.351,0,0,0,.352-.351v-4.058A.351.351,0,0,0,6079.927,1570.73Zm-.351,4.057h-3.354v-3.354h3.354Z" fill="#606060"/>
    <path id="Path_126" data-name="Path 126" d="M6055.047,1577.417h-4.057a.351.351,0,0,0-.352.351v4.057a.352.352,0,0,0,.352.352h4.057a.351.351,0,0,0,.351-.352v-4.057A.351.351,0,0,0,6055.047,1577.417Zm-.352,4.057h-3.354v-3.355h3.354Z" fill="#606060"/>
    <path id="Path_127" data-name="Path 127" d="M6061.267,1577.417h-4.057a.352.352,0,0,0-.352.351v4.057a.353.353,0,0,0,.352.352h4.057a.352.352,0,0,0,.351-.352v-4.057A.351.351,0,0,0,6061.267,1577.417Zm-.352,4.057h-3.354v-3.355h3.354Z" fill="#606060"/>
    <path id="Path_128" data-name="Path 128" d="M6067.487,1577.417h-4.057a.351.351,0,0,0-.351.351v4.057a.351.351,0,0,0,.351.352h4.057a.351.351,0,0,0,.351-.352v-4.057A.351.351,0,0,0,6067.487,1577.417Zm-.351,4.057h-3.355v-3.355h3.355Z" fill="#606060"/>
    <path id="Path_129" data-name="Path 129" d="M6073.707,1577.417h-4.057a.351.351,0,0,0-.351.351v4.057a.352.352,0,0,0,.351.352h4.057a.353.353,0,0,0,.352-.352v-4.057A.352.352,0,0,0,6073.707,1577.417Zm-.351,4.057H6070v-3.355h3.354Z" fill="#606060"/>
  </g>
</svg>
