<svg xmlns="http://www.w3.org/2000/svg" width="20.387" height="18.233" viewBox="0 0 20.387 18.233">
  <path id="Icon_material-drive-eta" data-name="Icon material-drive-eta" d="M21.647,7.088A1.609,1.609,0,0,0,20.118,6H8.27A1.62,1.62,0,0,0,6.74,7.088L4.5,13.54v8.617a1.08,1.08,0,0,0,1.077,1.077H6.654a1.08,1.08,0,0,0,1.077-1.077V21.079H20.656v1.077a1.08,1.08,0,0,0,1.077,1.077H22.81a1.08,1.08,0,0,0,1.077-1.077V13.54l-2.24-6.452ZM8.27,17.848a1.616,1.616,0,1,1,1.616-1.616A1.613,1.613,0,0,1,8.27,17.848Zm11.848,0a1.616,1.616,0,1,1,1.616-1.616A1.613,1.613,0,0,1,20.118,17.848ZM6.654,12.462,8.27,7.616H20.118l1.616,4.847Z" transform="translate(-4 -5.5)" fill="none" stroke="#606161" stroke-width="1"/>
</svg>
