<svg xmlns="http://www.w3.org/2000/svg" width="24.517" height="20.638" viewBox="0 0 24.517 20.638">
  <g id="Group_757" data-name="Group 757" transform="translate(-476.996 -5757.985)">
    <g id="Group_661" data-name="Group 661" transform="translate(477.162 5758.151)">
      <rect id="Rectangle_457" data-name="Rectangle 457" width="24.185" height="20.306" rx="0.323" transform="translate(0)" fill="none" stroke="#606161" stroke-linecap="round" stroke-linejoin="round" stroke-width="0.332"/>
      <g id="Group_660" data-name="Group 660" transform="translate(1.778 1.778)">
        <g id="Group_659" data-name="Group 659">
          <path id="Path_630" data-name="Path 630" d="M476.13,5479.9H455.9c-.136,0-.246.05-.246.111v16.525c0,.063.11.113.246.113H476.13c.137,0,.246-.05.246-.113v-16.525C476.376,5479.952,476.267,5479.9,476.13,5479.9Z" transform="translate(-455.656 -5479.902)" fill="none" stroke="#606161" stroke-linecap="round" stroke-linejoin="round" stroke-width="0.493"/>
        </g>
      </g>
    </g>
    <g id="Group_682" data-name="Group 682" transform="translate(482.348 5767.035)">
      <path id="Path_697" data-name="Path 697" d="M462.605,5495.967a.093.093,0,1,1,0-.187h.757l.52-2.705h-4.223l.52,2.705h.758a.093.093,0,0,1,0,.187H460.1a.094.094,0,0,1-.091-.076l-.541-2.815h-.479a.093.093,0,0,1-.092-.094v-1.112a.093.093,0,0,1,.092-.093h2.688v-1.482h-1.02a1.763,1.763,0,0,1-1.761-1.762v-.556a.093.093,0,0,1,.092-.092H460.1a1.749,1.749,0,0,1,1.408.705l.167.223v-.391a1.763,1.763,0,0,1,1.761-1.761h.556a.093.093,0,0,1,.092.093,1.763,1.763,0,0,1-1.761,1.761h-.464v2.393l.171-.271a2.311,2.311,0,0,1,1.96-1.083h.556a.093.093,0,0,1,.092.092,2.309,2.309,0,0,1-1.084,1.962l-.27.17h1.261a.093.093,0,0,1,.092.093v1.112a.093.093,0,0,1-.092.094h-.479l-.541,2.815a.094.094,0,0,1-.091.076Zm-3.522-3.078h5.375v-.926h-5.375Zm4.912-3.151a2.145,2.145,0,0,0-2.122,1.938l-.009.1h.464a2.147,2.147,0,0,0,2.123-1.937l.008-.1Zm-4.912-1.2a1.578,1.578,0,0,0,1.576,1.576h1.02v-.464a1.577,1.577,0,0,0-1.576-1.575h-1.02Zm4.356-1.687a1.578,1.578,0,0,0-1.563,1.379l-.013.1h.464a1.577,1.577,0,0,0,1.563-1.378l.014-.1Z" transform="translate(-458.898 -5486.661)" fill="none" stroke="#606161" stroke-linecap="round" stroke-linejoin="round" stroke-width="0.25"/>
      <path id="Path_698" data-name="Path 698" d="M461.635,5495.523a.093.093,0,1,1,.092-.094A.094.094,0,0,1,461.635,5495.523Z" transform="translate(-458.763 -5486.218)" fill="none" stroke="#606161" stroke-linecap="round" stroke-linejoin="round" stroke-width="0.25"/>
    </g>
    <g id="Group_683" data-name="Group 683" transform="translate(490.536 5767.035)">
      <path id="Path_699" data-name="Path 699" d="M470.4,5495.967a.093.093,0,0,1,0-.187h.757l.52-2.705h-4.223l.52,2.705h.758a.093.093,0,0,1,0,.187h-.835a.092.092,0,0,1-.09-.076l-.542-2.815h-.479a.093.093,0,0,1-.092-.094v-1.112a.093.093,0,0,1,.092-.093h2.688v-1.482h-1.02a1.763,1.763,0,0,1-1.761-1.762v-.556a.093.093,0,0,1,.092-.092h1.112a1.749,1.749,0,0,1,1.408.705l.167.223v-.391a1.763,1.763,0,0,1,1.761-1.761h.556a.093.093,0,0,1,.093.093,1.763,1.763,0,0,1-1.761,1.761h-.464v2.393l.171-.271a2.311,2.311,0,0,1,1.96-1.083h.556a.093.093,0,0,1,.092.092,2.309,2.309,0,0,1-1.084,1.962l-.27.17h1.261a.093.093,0,0,1,.092.093v1.112a.093.093,0,0,1-.092.094h-.479l-.541,2.815a.094.094,0,0,1-.091.076Zm-3.522-3.078h5.375v-.926h-5.375Zm4.912-3.151a2.145,2.145,0,0,0-2.122,1.938l-.009.1h.464a2.147,2.147,0,0,0,2.123-1.937l.008-.1Zm-4.912-1.2a1.578,1.578,0,0,0,1.576,1.576h1.02v-.464a1.577,1.577,0,0,0-1.576-1.575h-1.02Zm4.356-1.687a1.578,1.578,0,0,0-1.563,1.379l-.013.1h.464a1.577,1.577,0,0,0,1.563-1.378l.014-.1Z" transform="translate(-466.688 -5486.661)" fill="none" stroke="#606161" stroke-linecap="round" stroke-linejoin="round" stroke-width="0.25"/>
      <path id="Path_700" data-name="Path 700" d="M469.425,5495.523a.093.093,0,1,1,.092-.094A.094.094,0,0,1,469.425,5495.523Z" transform="translate(-466.553 -5486.218)" fill="none" stroke="#606161" stroke-linecap="round" stroke-linejoin="round" stroke-width="0.25"/>
    </g>
  </g>
</svg>
