<svg xmlns="http://www.w3.org/2000/svg" width="26.369" height="21.522" viewBox="0 0 26.369 21.522">
  <g id="Group_587" data-name="Group 587" transform="translate(0.25 0.25)">
    <line id="Line_33" data-name="Line 33" y1="13.846" transform="translate(2.255 3.305)" fill="none" stroke="#3d3435" stroke-linecap="round" stroke-linejoin="round" stroke-width="0.5"/>
    <line id="Line_34" data-name="Line 34" y2="13.846" transform="translate(6.781 3.305)" fill="none" stroke="#3d3435" stroke-linecap="round" stroke-linejoin="round" stroke-width="0.5"/>
    <path id="Path_557" data-name="Path 557" d="M98.132,2211.13v-.894a.722.722,0,0,1,.722-.723h4.763a.722.722,0,0,1,.722.723v.894" transform="translate(-96.717 -2192.362)" fill="none" stroke="#3d3435" stroke-linecap="round" stroke-linejoin="round" stroke-width="0.5"/>
    <line id="Line_35" data-name="Line 35" y1="13.846" transform="translate(23.614 3.305)" fill="none" stroke="#3d3435" stroke-linecap="round" stroke-linejoin="round" stroke-width="0.5"/>
    <line id="Line_36" data-name="Line 36" y2="13.846" transform="translate(19.088 3.305)" fill="none" stroke="#3d3435" stroke-linecap="round" stroke-linejoin="round" stroke-width="0.5"/>
    <path id="Path_558" data-name="Path 558" d="M121.513,2194.773v.617a1.031,1.031,0,0,1-1.03,1.03H98.853a1.031,1.031,0,0,1-1.031-1.03v-.617" transform="translate(-96.733 -2193.116)" fill="none" stroke="#3d3435" stroke-linecap="round" stroke-linejoin="round" stroke-width="0.5"/>
    <path id="Path_559" data-name="Path 559" d="M120.354,2211.13v-.894a.723.723,0,0,0-.723-.723h-4.763a.723.723,0,0,0-.722.723v.894" transform="translate(-95.899 -2192.362)" fill="none" stroke="#3d3435" stroke-linecap="round" stroke-linejoin="round" stroke-width="0.5"/>
    <path id="Path_560" data-name="Path 560" d="M104.861,2194.854h16.966a.829.829,0,0,0,0-1.657H97.615a.829.829,0,1,0,0,1.657h4.81" transform="translate(-96.786 -2193.196)" fill="none" stroke="#3d3435" stroke-linecap="round" stroke-linejoin="round" stroke-width="0.5"/>
    <path id="Path_561" data-name="Path 561" d="M104.84,2213.306H122.2v-1.348a.906.906,0,0,0-.906-.906H98.1a.906.906,0,0,0-.906.906v1.348H102.4" transform="translate(-96.765 -2192.284)" fill="none" stroke="#3d3435" stroke-linecap="round" stroke-linejoin="round" stroke-width="0.5"/>
    <path id="Path_562" data-name="Path 562" d="M111.556,2209.906a2.523,2.523,0,0,0,.7-3.288c-.826-1.765-2.364-2.223-1.484-4.807a4.809,4.809,0,0,0-2.192,3.255" transform="translate(-96.183 -2192.756)" fill="none" stroke="#3d3435" stroke-linecap="round" stroke-linejoin="round" stroke-width="0.5"/>
    <path id="Path_563" data-name="Path 563" d="M109.277,2207.043a3.281,3.281,0,0,0-2.446-3.372c.66,2.093-.511,2.489-.91,3.7a2.376,2.376,0,0,0,.687,2.437" transform="translate(-96.325 -2192.661)" fill="none" stroke="#3d3435" stroke-linecap="round" stroke-linejoin="round" stroke-width="0.5"/>
    <line id="Line_37" data-name="Line 37" x2="7.593" transform="translate(9.138 17.151)" fill="none" stroke="#3d3435" stroke-linecap="round" stroke-linejoin="round" stroke-width="0.5"/>
    <line id="Line_38" data-name="Line 38" x2="0.018" transform="translate(9.179 9.18)" fill="none" stroke="#3d3435" stroke-linecap="round" stroke-linejoin="round" stroke-width="0.5"/>
    <line id="Line_39" data-name="Line 39" x2="0.018" transform="translate(11.119 5.623)" fill="none" stroke="#3d3435" stroke-linecap="round" stroke-linejoin="round" stroke-width="0.5"/>
    <line id="Line_40" data-name="Line 40" x2="0.018" transform="translate(16.616 10.15)" fill="none" stroke="#3d3435" stroke-linecap="round" stroke-linejoin="round" stroke-width="0.5"/>
    <line id="Line_41" data-name="Line 41" x2="0.018" transform="translate(14.959 6.402)" fill="none" stroke="#3d3435" stroke-linecap="round" stroke-linejoin="round" stroke-width="0.5"/>
    <line id="Line_42" data-name="Line 42" x2="0.018" transform="translate(12.558 7.907)" fill="none" stroke="#3d3435" stroke-linecap="round" stroke-linejoin="round" stroke-width="0.5"/>
  </g>
</svg>
