<svg xmlns="http://www.w3.org/2000/svg" width="26" height="25.29" viewBox="0 0 26 25.29">
  <g id="Group_569" data-name="Group 569" transform="translate(-1041 -12609.71)">
    <g id="Group_566" data-name="Group 566">
      <path id="Path_349" data-name="Path 349" d="M1011.056,11215.654a1.4,1.4,0,1,1-1.4-1.4,1.4,1.4,0,0,1,1.4,1.4" transform="translate(50.83 1399.808)" fill="#fff"/>
      <path id="Path_350" data-name="Path 350" d="M1009.465,11210.188c-3.433-.1-7.71-.1-11.145,0a6.708,6.708,0,0,0-6.555,6.558c-.106,3.435-.106,7.71,0,11.145a6.705,6.705,0,0,0,6.555,6.556c3.435.105,7.712.105,11.145,0a6.705,6.705,0,0,0,6.556-6.556c.1-3.435.1-7.71,0-11.145a6.709,6.709,0,0,0-6.556-6.558m4.469,17.481a4.722,4.722,0,0,1-4.689,4.689c-3.38.081-7.323.081-10.7,0a4.722,4.722,0,0,1-4.688-4.689c-.083-3.381-.083-7.322,0-10.7a4.722,4.722,0,0,1,4.688-4.689c3.381-.082,7.324-.082,10.7,0a4.723,4.723,0,0,1,4.689,4.689c.082,3.381.082,7.322,0,10.7" transform="translate(49.994 1399.599)" fill="#fff"/>
      <path id="Path_351" data-name="Path 351" d="M1003.607,11215.787a6.244,6.244,0,1,0,6.244,6.245,6.244,6.244,0,0,0-6.244-6.245m0,10.383a4.139,4.139,0,1,1,4.139-4.138,4.137,4.137,0,0,1-4.139,4.138" transform="translate(50.281 1399.886)" fill="#fff"/>
    </g>
    <rect id="Rectangle_303" data-name="Rectangle 303" width="26" height="25" transform="translate(1041 12610)" fill="none"/>
  </g>
</svg>
