<svg xmlns="http://www.w3.org/2000/svg" width="27.002" height="23.716" viewBox="0 0 27.002 23.716">
  <g id="Group_675" data-name="Group 675" transform="translate(0.42 0.35)">
    <path id="Path_667" data-name="Path 667" d="M121.331,3277.925a2.347,2.347,0,0,0-2.347,2.346v7.394h2.347v-5.048a2.346,2.346,0,1,0,0-4.692Z" transform="translate(-97.445 -3266.617)" fill="none" stroke="#606161" stroke-width="0.7"/>
    <path id="Path_668" data-name="Path 668" d="M118.155,3286.229v2.045H107.7v-2.045" transform="translate(-96.616 -3267.227)" fill="none" stroke="#606161" stroke-width="0.7"/>
    <path id="Path_669" data-name="Path 669" d="M113.678,3285.907H107.7v-2.156a1.908,1.908,0,0,1,1.909-1.909h6.638a1.908,1.908,0,0,1,1.909,1.909v2.156h-2.234" transform="translate(-96.616 -3266.904)" fill="none" stroke="#606161" stroke-width="0.7"/>
    <path id="Path_670" data-name="Path 670" d="M107.118,3276.025v-1.8a3.245,3.245,0,0,1,3.246-3.245h5.042a3.245,3.245,0,0,1,3.246,3.245v1.8" transform="translate(-96.574 -3266.106)" fill="none" stroke="#606161" stroke-width="0.7"/>
    <path id="Path_671" data-name="Path 671" d="M104.981,3277.925a2.347,2.347,0,0,1,2.347,2.346v7.394h-2.347v-5.048a2.346,2.346,0,1,1,0-4.692Z" transform="translate(-96.244 -3266.617)" fill="none" stroke="#606161" stroke-width="0.7"/>
    <line id="Line_116" data-name="Line 116" x2="0.019" transform="translate(23.875 13.655)" fill="none" stroke="#606161" stroke-width="0.7"/>
    <line id="Line_117" data-name="Line 117" x2="0.019" transform="translate(8.728 13.655)" fill="none" stroke="#606161" stroke-width="0.7"/>
    <line id="Line_118" data-name="Line 118" y2="0.153" transform="translate(13.885 7.978)" fill="none" stroke="#606161" stroke-width="0.7"/>
    <line id="Line_119" data-name="Line 119" y2="0.153" transform="translate(13.885 12.137)" fill="none" stroke="#606161" stroke-width="0.7"/>
    <line id="Line_120" data-name="Line 120" y2="0.153" transform="translate(16.311 10.058)" fill="none" stroke="#606161" stroke-width="0.7"/>
    <line id="Line_121" data-name="Line 121" y2="0.153" transform="translate(18.737 7.978)" fill="none" stroke="#606161" stroke-width="0.7"/>
    <line id="Line_122" data-name="Line 122" y2="0.153" transform="translate(18.737 12.137)" fill="none" stroke="#606161" stroke-width="0.7"/>
    <line id="Line_123" data-name="Line 123" y2="13.484" transform="translate(4.204 7.564)" fill="none" stroke="#606161" stroke-width="0.7"/>
    <path id="Path_672" data-name="Path 672" d="M102.756,3265.72H97.128l-1.39,7.564h8.409Z" transform="translate(-95.737 -3265.72)" fill="none" stroke="#606161" stroke-width="0.7"/>
    <line id="Line_124" data-name="Line 124" x2="5.641" transform="translate(0.316 5.846)" fill="none" stroke="#606161" stroke-width="0.7"/>
    <line id="Line_125" data-name="Line 125" x2="7.255" transform="translate(1.482 21.048)" fill="none" stroke="#606161" stroke-width="0.7"/>
    <line id="Line_126" data-name="Line 126" x2="13.842" transform="translate(9.191 23.015)" fill="none" stroke="#606161" stroke-width="0.7"/>
    <line id="Line_127" data-name="Line 127" x2="4.022" transform="translate(2.99 23.015)" fill="none" stroke="#606161" stroke-width="0.7"/>
    <line id="Line_128" data-name="Line 128" x2="1.5" transform="translate(23.885 21.048)" fill="none" stroke="#606161" stroke-width="0.7"/>
  </g>
</svg>
