<svg id="Group_670" data-name="Group 670" xmlns="http://www.w3.org/2000/svg" width="21.152" height="16.299" viewBox="0 0 21.152 16.299">
  <path id="Path_633" data-name="Path 633" d="M453.4,3282.663a2.89,2.89,0,0,0,4.084,0,2.89,2.89,0,0,0,4.084,0,2.891,2.891,0,0,0,4.085,0,3.177,3.177,0,0,0,2.042.844,3.358,3.358,0,0,0,2.291-1.066.376.376,0,1,0-.517-.545,2.257,2.257,0,0,1-3.547,0,.376.376,0,0,0-.259-.1h-.019a.377.377,0,0,0-.259.1,2.256,2.256,0,0,1-3.547,0,.376.376,0,0,0-.259-.1h-.019a.376.376,0,0,0-.259.1,2.256,2.256,0,0,1-3.547,0,.377.377,0,0,0-.259-.1h-.019a.376.376,0,0,0-.259.1,2.257,2.257,0,0,1-3.547,0,.376.376,0,0,0-.259-.1h-.019a.377.377,0,0,0-.259.1,2.256,2.256,0,0,1-3.547,0,.376.376,0,1,0-.518.545,2.949,2.949,0,0,0,4.333.222Z" transform="translate(-448.954 -3271.429)" fill="#606161"/>
  <path id="Path_634" data-name="Path 634" d="M469.472,3287.747a2.257,2.257,0,0,1-3.547,0,.375.375,0,0,0-.259-.1h-.019a.376.376,0,0,0-.259.1,2.257,2.257,0,0,1-3.547,0,.375.375,0,0,0-.259-.1h-.019a.375.375,0,0,0-.259.1,2.257,2.257,0,0,1-3.547,0,.376.376,0,0,0-.259-.1h-.019a.375.375,0,0,0-.259.1,2.257,2.257,0,0,1-3.547,0,.375.375,0,0,0-.259-.1h-.019a.376.376,0,0,0-.259.1,2.257,2.257,0,0,1-3.547,0,.376.376,0,1,0-.518.545,2.949,2.949,0,0,0,4.333.223,2.891,2.891,0,0,0,4.084,0,2.891,2.891,0,0,0,4.084,0,2.892,2.892,0,0,0,4.085,0,3.182,3.182,0,0,0,2.042.844,3.359,3.359,0,0,0,2.291-1.067.376.376,0,1,0-.517-.545Z" transform="translate(-448.954 -3273.061)" fill="#606161"/>
  <path id="Path_635" data-name="Path 635" d="M458.517,3278.281a.376.376,0,1,0,.663-.355,3.267,3.267,0,1,1,5.77,0,.376.376,0,0,0,.663.354,4.02,4.02,0,1,0-7.1,0Z" transform="translate(-451.489 -3268.803)" fill="#606161"/>
  <path id="Path_636" data-name="Path 636" d="M463.475,3270.689a.375.375,0,0,0,.376-.375V3267.8a.376.376,0,1,0-.751,0v2.515a.375.375,0,0,0,.376.375Z" transform="translate(-452.899 -3267.422)" fill="#606161"/>
  <path id="Path_637" data-name="Path 637" d="M468.067,3272.876a.374.374,0,0,0,.266-.11l1.778-1.778a.376.376,0,0,0-.531-.532l-1.778,1.779a.376.376,0,0,0,.265.642Z" transform="translate(-454.179 -3268.237)" fill="#606161"/>
  <path id="Path_638" data-name="Path 638" d="M469.594,3277.781a.375.375,0,0,0,.376.376h2.515a.376.376,0,0,0,0-.751H469.97a.375.375,0,0,0-.376.375Z" transform="translate(-454.71 -3270.206)" fill="#606161"/>
  <path id="Path_639" data-name="Path 639" d="M453.492,3278.157h2.515a.376.376,0,0,0,0-.751h-2.515a.376.376,0,0,0,0,.751Z" transform="translate(-450.115 -3270.206)" fill="#606161"/>
  <path id="Path_640" data-name="Path 640" d="M457.929,3272.766a.375.375,0,0,0,.531,0,.376.376,0,0,0,0-.531l-1.779-1.779a.376.376,0,0,0-.531.532l1.779,1.778Z" transform="translate(-450.93 -3268.237)" fill="#606161"/>
</svg>
