<svg xmlns="http://www.w3.org/2000/svg" width="493.519" height="491.712" viewBox="0 0 493.519 491.712">
  <g id="Layer_2" data-name="Layer 2" transform="translate(0)">
    <g id="Group_570" data-name="Group 570" transform="translate(0)">
      <path id="Path_359" data-name="Path 359" d="M.048,55.764a232.279,232.279,0,0,0,60.67,31.588,247.09,247.09,0,0,1,50.354-16.9,239.232,239.232,0,0,1,115.8,3.38A234.446,234.446,0,0,0-.01,55.706Z" transform="translate(0.01 167.217)" fill="#cecece"/>
      <path id="Path_360" data-name="Path 360" d="M69.333,119.86A241.52,241.52,0,0,1,219.405,47.242,234.628,234.628,0,0,0,1.32,112.341a230.92,230.92,0,0,0,68.013,7.518Z" transform="translate(6.431 201.44)" fill="#cecece"/>
      <path id="Path_361" data-name="Path 361" d="M227.93,180.014a232.536,232.536,0,0,0-34.968-58.8,242.594,242.594,0,0,1-51.695-12.122A238.4,238.4,0,0,1,44.58,45.27a233.327,233.327,0,0,0,70.344,88.178,232.8,232.8,0,0,0,113.064,46.566Z" transform="translate(215.292 218.565)" fill="#cecece"/>
      <path id="Path_362" data-name="Path 362" d="M74.27,165.873a244.465,244.465,0,0,1,25.818-46.391A239.334,239.334,0,0,1,187.975,43.95,234.423,234.423,0,0,0,8.18,183.415a231.4,231.4,0,0,0,66.09-17.542Z" transform="translate(39.552 212.192)" fill="#cecece"/>
      <path id="Path_363" data-name="Path 363" d="M13.91,10.87A231.768,231.768,0,0,0,37.455,75.1,245.156,245.156,0,0,1,86.061,96.542a239.055,239.055,0,0,1,83.283,80.544,232.932,232.932,0,0,0-52.86-99.6A232.823,232.823,0,0,0,13.91,10.87Z" transform="translate(67.216 52.481)" fill="#cecece"/>
      <path id="Path_364" data-name="Path 364" d="M211.228,61.511a239.725,239.725,0,0,1-52.569,7.343A238.507,238.507,0,0,1,45.42,44.26a233.177,233.177,0,0,0,97.445,56.765,232.318,232.318,0,0,0,122.272,2.564,229.843,229.843,0,0,0-53.851-42.137Z" transform="translate(219.348 213.689)" fill="#cecece"/>
      <path id="Path_365" data-name="Path 365" d="M55.609,123.184A232.612,232.612,0,0,0,19.65,240.095a230.867,230.867,0,0,0,55.308-40.272A241.38,241.38,0,0,1,136.968,45.03a232.883,232.883,0,0,0-81.3,78.154Z" transform="translate(94.929 217.407)" fill="#cecece"/>
      <path id="Path_366" data-name="Path 366" d="M76.734,52.751a242.5,242.5,0,0,1,2.506,53.035,239.135,239.135,0,0,1-34.91,110.5,233.318,233.318,0,0,0,65.507-91.792A232.741,232.741,0,0,0,123.65,2.98,229.094,229.094,0,0,0,76.734,52.751Z" transform="translate(214.085 14.388)" fill="#cecece"/>
      <path id="Path_367" data-name="Path 367" d="M272.143,55.364A230.46,230.46,0,0,0,206.694,35.49,242.133,242.133,0,0,1,160.3,61.366,238.929,238.929,0,0,1,45.84,79.375,233.157,233.157,0,0,0,157.214,97.151,232.454,232.454,0,0,0,272.143,55.364Z" transform="translate(221.376 171.347)" fill="#cecece"/>
      <path id="Path_368" data-name="Path 368" d="M4.438,23.622A230.192,230.192,0,0,0,49.606,74.967a243.247,243.247,0,0,1,53.035,2.448,239.262,239.262,0,0,1,106.77,45.051,233.733,233.733,0,0,0-85.323-73.783A233.126,233.126,0,0,0,4.38,23.622Z" transform="translate(21.205 111.997)" fill="#cecece"/>
      <path id="Path_369" data-name="Path 369" d="M28.738,71.161A243.132,243.132,0,0,1,66.27,108.694a239.01,239.01,0,0,1,48.548,105.2,232.137,232.137,0,0,0-13.346-111.957A232.728,232.728,0,0,0,29.9,2.74,230.2,230.2,0,0,0,28.68,71.161Z" transform="translate(128.969 13.229)" fill="#cecece"/>
      <path id="Path_370" data-name="Path 370" d="M79.768,158.386A239.086,239.086,0,0,1,51.328,46.08h0A234.665,234.665,0,0,0,96.087,269.236a231.493,231.493,0,0,0,13.754-67.022,240.541,240.541,0,0,1-30.014-43.827Z" transform="translate(194.266 222.476)" fill="#cecece"/>
      <path id="Path_371" data-name="Path 371" d="M165.761,237.817a232.341,232.341,0,0,0-11.365-67.43,240.735,240.735,0,0,1-43.827-30.014A239.181,239.181,0,0,1,43.43,45.9,232.759,232.759,0,0,0,77.174,153.486a232.842,232.842,0,0,0,88.586,84.273Z" transform="translate(209.74 221.607)" fill="#cecece"/>
      <path id="Path_372" data-name="Path 372" d="M82.006,212.51a242.327,242.327,0,0,1-12.181-51.695A239.633,239.633,0,0,1,83.871,45.77,234.525,234.525,0,0,0,45,269.975a230.365,230.365,0,0,0,37.008-57.523Z" transform="translate(154.262 220.979)" fill="#cecece"/>
      <path id="Path_373" data-name="Path 373" d="M179.942,29.5a240.537,240.537,0,0,1-33.919,40.855A239.561,239.561,0,0,1,45.78,128.518a233.925,233.925,0,0,0,110.267-23.662A232.748,232.748,0,0,0,248.13,24.371,230.983,230.983,0,0,0,179.942,29.5Z" transform="translate(221.086 114.569)" fill="#cecece"/>
      <path id="Path_374" data-name="Path 374" d="M117.7,91.038A239.565,239.565,0,0,1,45.26,181.489,233.739,233.739,0,0,0,139.5,119.595,233.222,233.222,0,0,0,196.323,11.31a231.562,231.562,0,0,0-61.777,29.432A243.56,243.56,0,0,1,117.7,91.1Z" transform="translate(218.575 54.605)" fill="#cecece"/>
      <path id="Path_375" data-name="Path 375" d="M66.942,227.585A233.156,233.156,0,0,0,94.975,118.368,233.011,233.011,0,0,0,64.086,0,230.943,230.943,0,0,0,38.21,63.351a241.728,241.728,0,0,1,21.447,48.606,239.317,239.317,0,0,1,7.285,115.628Z" transform="translate(184.538)" fill="#cecece"/>
    </g>
  </g>
</svg>
