<svg xmlns="http://www.w3.org/2000/svg" width="17.956" height="17.956" viewBox="0 0 17.956 17.956">
  <g id="Group_570" data-name="Group 570" transform="translate(-1066.959 -2130.115)">
    <path id="Path_319" data-name="Path 319" d="M19.015,14.418H15.8V11.2a.691.691,0,0,0-1.381,0v3.216H11.2a.661.661,0,0,0-.691.691.669.669,0,0,0,.691.691h3.216v3.216a.669.669,0,0,0,.691.691.687.687,0,0,0,.691-.691V15.8h3.216a.691.691,0,0,0,0-1.381Z" transform="translate(1060.828 2123.985)" fill="#cb7933"/>
    <path id="Path_320" data-name="Path 320" d="M12.353,4.584A7.766,7.766,0,1,1,6.858,6.858a7.718,7.718,0,0,1,5.495-2.275m0-1.209a8.978,8.978,0,1,0,8.978,8.978,8.976,8.976,0,0,0-8.978-8.978Z" transform="translate(1063.584 2126.74)" fill="#cb7933"/>
  </g>
</svg>
