<svg xmlns="http://www.w3.org/2000/svg" width="23.734" height="21.509" viewBox="0 0 23.734 21.509">
  <path id="_31" data-name="31" d="M15.142,21.248c-1.1-.249-3.236-1.154-5.263-1.888a14.688,14.688,0,0,0-4.235-1.069,7.077,7.077,0,0,0-2,.293,6.673,6.673,0,0,0-1.415.6,8.383,8.383,0,0,0-1.293.953c-.08.067-.309.275-.309.275a.376.376,0,0,1-.255.1.37.37,0,0,1-.249-.642s.158-.154.284-.258c.066-.056.229-.2.468-.391a7.142,7.142,0,0,1,.835-.6,7.632,7.632,0,0,1,3.936-1.08c2.4-.034,7.445,2.4,9.5,2.935a14.287,14.287,0,0,0,5.266.072,6.331,6.331,0,0,0,.65-.148.371.371,0,0,1,.439.286.341.341,0,0,1,.009.079.372.372,0,0,1-.293.362,6.524,6.524,0,0,1-.8.173c-.575.079-1.3.16-2.09.19-.195.006-.393.012-.6.012h-.016A11.634,11.634,0,0,1,15.142,21.248Zm0-4.2c-1.1-.25-3.236-1.156-5.263-1.889a14.657,14.657,0,0,0-4.235-1.07,7.077,7.077,0,0,0-2,.293,6.673,6.673,0,0,0-1.415.6,8.249,8.249,0,0,0-1.293.955c-.08.065-.309.273-.309.273a.372.372,0,0,1-.255.1A.364.364,0,0,1,.1,16.2a.362.362,0,0,1-.1-.251.371.371,0,0,1,.119-.273s.158-.152.284-.256c.066-.056.229-.2.468-.39a7.292,7.292,0,0,1,.835-.6,7.65,7.65,0,0,1,3.936-1.08c2.4-.034,7.445,2.4,9.5,2.935a14.277,14.277,0,0,0,5.266.072,6.316,6.316,0,0,0,.65-.147.37.37,0,0,1,.439.285.345.345,0,0,1,.009.078.372.372,0,0,1-.293.362,6.477,6.477,0,0,1-.8.173c-.575.08-1.3.16-2.09.19-.2.008-.408.012-.617.012A11.693,11.693,0,0,1,15.142,17.052Zm3.4-4.072V11.127H11.125v1.111a.371.371,0,1,1-.742,0V2.6a2.6,2.6,0,1,1,5.192,0V4.08a.371.371,0,0,1-.742,0V2.6a1.854,1.854,0,1,0-3.709,0V6.676h7.418V2.6a2.6,2.6,0,1,1,5.192,0V4.08a.371.371,0,0,1-.742,0V2.6a1.854,1.854,0,1,0-3.708,0V12.98a.371.371,0,1,1-.742,0Zm0-2.595V7.418H11.125v2.967Z" fill="#606161"/>
</svg>
