<svg xmlns="http://www.w3.org/2000/svg" width="21.58" height="25.208" viewBox="0 0 21.58 25.208">
  <g id="Group_588" data-name="Group 588" transform="translate(0.231 0.231)">
    <path id="Path_570" data-name="Path 570" d="M104.2,2168.313v-18.155a.176.176,0,0,1,.176-.176H106.7" transform="translate(-97.588 -2146.774)" fill="none" stroke="#3d3435" stroke-linecap="round" stroke-linejoin="round" stroke-width="0.461"/>
    <path id="Path_571" data-name="Path 571" d="M116.8,2149.181a.117.117,0,0,1,.054.1v18.267l-7.255,3.208v-24.746Z" transform="translate(-98.63 -2146.007)" fill="none" stroke="#3d3435" stroke-linecap="round" stroke-linejoin="round" stroke-width="0.461"/>
    <path id="Path_572" data-name="Path 572" d="M102.282,2167.943v-18.777a1.1,1.1,0,0,1,1.1-1.1h2.945" transform="translate(-97.218 -2146.405)" fill="none" stroke="#3d3435" stroke-linecap="round" stroke-linejoin="round" stroke-width="0.461"/>
    <line id="Line_43" data-name="Line 43" x1="9.109" transform="translate(0 21.538)" fill="none" stroke="#3d3435" stroke-linecap="round" stroke-linejoin="round" stroke-width="0.461"/>
    <line id="Line_44" data-name="Line 44" y1="0.463" transform="translate(12.955 13.833)" fill="none" stroke="#3d3435" stroke-linecap="round" stroke-linejoin="round" stroke-width="0.461"/>
    <path id="Path_573" data-name="Path 573" d="M119.3,2167.943v-18.777a1.1,1.1,0,0,0-1.1-1.1h-3.932" transform="translate(-99.531 -2146.405)" fill="none" stroke="#3d3435" stroke-linecap="round" stroke-linejoin="round" stroke-width="0.461"/>
    <line id="Line_45" data-name="Line 45" x1="2.899" transform="translate(18.22 21.538)" fill="none" stroke="#3d3435" stroke-linecap="round" stroke-linejoin="round" stroke-width="0.461"/>
    <line id="Line_46" data-name="Line 46" x1="6.016" transform="translate(3.093 24.746)" fill="none" stroke="#3d3435" stroke-linecap="round" stroke-linejoin="round" stroke-width="0.461"/>
    <line id="Line_47" data-name="Line 47" x1="7.563" transform="translate(1.547 23.142)" fill="none" stroke="#3d3435" stroke-linecap="round" stroke-linejoin="round" stroke-width="0.461"/>
  </g>
</svg>
