<svg xmlns="http://www.w3.org/2000/svg" width="21.773" height="30.289" viewBox="0 0 21.773 30.289">
  <g id="Group_680" data-name="Group 680" transform="translate(0.25 0.255)">
    <g id="Group_679" data-name="Group 679" transform="translate(0)">
      <path id="Path_691" data-name="Path 691" d="M1320.2,4284.242l-11.7,3.191a1.063,1.063,0,0,0-.783,1.026v21.274a1.061,1.061,0,0,0,.783,1.025l11.7,3.191a1.054,1.054,0,0,0,.28.038,1.063,1.063,0,0,0,1.064-1.064v-27.657a1.063,1.063,0,0,0-1.343-1.025Zm-.784,27.29-9.572-2.611v-19.649l9.572-2.611Z" transform="translate(-1307.714 -4284.205)" fill="none" stroke="#4c4444" stroke-width="0.5"/>
      <path id="Path_692" data-name="Path 692" d="M1326.084,4287.24h-2.127a1.064,1.064,0,1,0,0,2.127h2.127v19.146h-2.127a1.064,1.064,0,1,0,0,2.127h2.127a2.13,2.13,0,0,0,2.127-2.127v-19.146A2.13,2.13,0,0,0,1326.084,4287.24Z" transform="translate(-1306.938 -4284.05)" fill="none" stroke="#4c4444" stroke-width="0.5"/>
      <path id="Path_693" data-name="Path 693" d="M1315.861,4300.6a1.064,1.064,0,0,0,1.064-1.064v-2.127a1.064,1.064,0,0,0-2.127,0v2.127A1.064,1.064,0,0,0,1315.861,4300.6Z" transform="translate(-1307.352 -4283.584)" fill="none" stroke="#4c4444" stroke-width="0.5"/>
    </g>
  </g>
</svg>
