<svg xmlns="http://www.w3.org/2000/svg" width="27.968" height="32.693" viewBox="0 0 27.968 32.693">
  <g id="Group_639" data-name="Group 639" transform="translate(0.231 0.231)">
    <path id="Path_615" data-name="Path 615" d="M101.56,4307.49v-23.646a.229.229,0,0,1,.229-.229h3.026" transform="translate(-92.95 -4279.437)" fill="none" stroke="#3d3435" stroke-linecap="round" stroke-linejoin="round" stroke-width="0.461"/>
    <path id="Path_616" data-name="Path 616" d="M116.336,4283.773a.152.152,0,0,1,.069.126v23.794l-9.448,4.178V4279.64Z" transform="translate(-92.674 -4279.64)" fill="none" stroke="#3d3435" stroke-linecap="round" stroke-linejoin="round" stroke-width="0.461"/>
    <path id="Path_617" data-name="Path 617" d="M99.643,4307.588v-24.457a1.435,1.435,0,0,1,1.435-1.434h3.835" transform="translate(-93.048 -4279.534)" fill="none" stroke="#3d3435" stroke-linecap="round" stroke-linejoin="round" stroke-width="0.461"/>
    <line id="Line_86" data-name="Line 86" x1="11.865" transform="translate(0 28.053)" fill="none" stroke="#3d3435" stroke-linecap="round" stroke-linejoin="round" stroke-width="0.461"/>
    <line id="Line_87" data-name="Line 87" y1="0.603" transform="translate(16.874 18.017)" fill="none" stroke="#3d3435" stroke-linecap="round" stroke-linejoin="round" stroke-width="0.461"/>
    <path id="Path_618" data-name="Path 618" d="M118.182,4307.588v-24.457a1.434,1.434,0,0,0-1.434-1.434h-5.122" transform="translate(-92.436 -4279.534)" fill="none" stroke="#3d3435" stroke-linecap="round" stroke-linejoin="round" stroke-width="0.461"/>
    <line id="Line_88" data-name="Line 88" x1="3.775" transform="translate(23.731 28.053)" fill="none" stroke="#3d3435" stroke-linecap="round" stroke-linejoin="round" stroke-width="0.461"/>
    <line id="Line_89" data-name="Line 89" x1="7.836" transform="translate(4.029 32.232)" fill="none" stroke="#3d3435" stroke-linecap="round" stroke-linejoin="round" stroke-width="0.461"/>
    <line id="Line_90" data-name="Line 90" x1="9.851" transform="translate(2.014 30.142)" fill="none" stroke="#3d3435" stroke-linecap="round" stroke-linejoin="round" stroke-width="0.461"/>
  </g>
</svg>
