<svg xmlns="http://www.w3.org/2000/svg" width="27.611" height="27.923" viewBox="0 0 27.611 27.923">
  <path id="Path_696" data-name="Path 696" d="M122.562,5494.132h-8.3l4.846-7.074,3.144,3.008a.443.443,0,0,0,.713-.495l-2.953-6.875a.442.442,0,0,0-.7-.161l-2.493,2.149,4.235-9.5a.443.443,0,0,0-.766-.437l-6.368,8.974,2.205-13.654a.443.443,0,0,0-.852-.225l-4.188,11.221-1.314-13.314a.443.443,0,0,0-.882,0l-1.314,13.314-4.189-11.221a.443.443,0,0,0-.852.225l2.205,13.654-6.368-8.974a.443.443,0,0,0-.766.438l4.236,9.5-2.493-2.149a.443.443,0,0,0-.7.161l-2.953,6.875a.443.443,0,0,0,.714.495l3.143-3.008,4.846,7.074h-8.3a.443.443,0,0,0,0,.886h26.448a.443.443,0,1,0,0-.886Zm-9.37,0h-7.709l-5.271-7.694.4-.387a.444.444,0,0,0-.613-.642l-2.624,2.511,1.855-4.319,3.46,2.983,2.675,6a.444.444,0,0,0,.81-.361l-2.712-6.085-.008-.018-3.221-7.228,4.828,6.8.437,2.7a.443.443,0,0,0,.875-.141l-.451-2.8,0-.021-1.792-11.1,3.252,8.716-.285,2.9a.443.443,0,1,0,.882.086l.3-2.992v-.011l1.06-10.742,1.061,10.742v.011l.294,2.992a.444.444,0,0,0,.883-.086l-.286-2.9,3.253-8.716-1.794,11.1,0,.016-.452,2.8a.443.443,0,0,0,.875.141l.437-2.7,4.829-6.8-3.222,7.229-.007.017-2.712,6.085a.443.443,0,1,0,.809.361l2.675-6,3.461-2.984,1.854,4.319-2.622-2.511a.444.444,0,0,0-.614.642l.4.387Z" transform="translate(-95.533 -5467.22)" fill="none" stroke="#3d3435" stroke-linecap="round" stroke-linejoin="round" stroke-width="0.25"/>
</svg>
