<svg xmlns="http://www.w3.org/2000/svg" width="18.359" height="18.359" viewBox="0 0 18.359 18.359">
  <g id="noun-close-1217826" transform="translate(-23.5 -23.5)">
    <g id="Group_564" data-name="Group 564" transform="translate(23.5 23.5)">
      <path id="Path_525" data-name="Path 525" d="M23.708,41.652a.67.67,0,0,0,.97,0l8-8,8,8a.67.67,0,0,0,.97,0,.67.67,0,0,0,0-.97l-8-8,8-8a.686.686,0,1,0-.97-.97l-8,8-8-8a.686.686,0,1,0-.97.97l8,8-8,8A.67.67,0,0,0,23.708,41.652Z" transform="translate(-23.5 -23.5)" fill="#606161"/>
    </g>
  </g>
</svg>
