<svg id="Group_630" data-name="Group 630" xmlns="http://www.w3.org/2000/svg" width="25.321" height="21.285" viewBox="0 0 25.321 21.285">
  <path id="Path_608" data-name="Path 608" d="M121.587,3325.909H120.7v-7.584a11.437,11.437,0,1,0-22.874,0v7.584h-.885a.339.339,0,0,0-.339.339v1.585a.339.339,0,0,0,.339.339h24.643a.339.339,0,0,0,.339-.339v-1.585A.338.338,0,0,0,121.587,3325.909Zm-23.081-7.584a10.759,10.759,0,1,1,21.518,0v7.584h-4.55v-9.635h.015a.339.339,0,0,0,0-.678h-12.45a.339.339,0,0,0,0,.678h.014v9.635H98.506Zm6.716,7.269v-3.073a.316.316,0,0,1,.316-.315h3.073a.316.316,0,0,1,.315.315v3.073a.316.316,0,0,1-.315.315h-3.073A.316.316,0,0,1,105.221,3325.594Zm2.191-4.382v-3.073a.317.317,0,0,1,.316-.315H110.8a.316.316,0,0,1,.315.315v3.073a.315.315,0,0,1-.315.315h-3.073A.316.316,0,0,1,107.412,3321.212Zm5.895,4.382a.315.315,0,0,1-.315.315h-3.073a.315.315,0,0,1-.315-.315v-3.073a.315.315,0,0,1,.315-.315h3.073a.315.315,0,0,1,.315.315v3.073Zm.622.315a.969.969,0,0,0,.056-.315v-3.073a.994.994,0,0,0-.993-.994h-1.253a1,1,0,0,0,.056-.315v-3.073a.994.994,0,0,0-.993-.993h-3.073a.994.994,0,0,0-.994.993v3.073a1,1,0,0,0,.056.315h-1.253a1,1,0,0,0-.993.994v3.073a.994.994,0,0,0,.056.315h-.868v-9.635H114.8v9.635Zm7.319,1.586H97.283v-.908h23.964Z" transform="translate(-96.604 -3306.887)" fill="#606161"/>
  <path id="Path_609" data-name="Path 609" d="M109.882,3313.391a1.732,1.732,0,1,0-1.732-1.732A1.734,1.734,0,0,0,109.882,3313.391Zm0-2.786a1.054,1.054,0,1,1-1.055,1.054A1.055,1.055,0,0,1,109.882,3310.6Z" transform="translate(-97.22 -3307.049)" fill="#606161"/>
  <path id="Path_610" data-name="Path 610" d="M108.28,3323.6h-1.347a.339.339,0,1,0,0,.678h1.347a.339.339,0,0,0,0-.678Z" transform="translate(-97.137 -3307.779)" fill="#606161"/>
  <path id="Path_611" data-name="Path 611" d="M112.909,3323.6h-1.348a.339.339,0,0,0,0,.678h1.348a.339.339,0,0,0,0-.678Z" transform="translate(-97.384 -3307.779)" fill="#606161"/>
  <path id="Path_612" data-name="Path 612" d="M110.934,3319.308a.338.338,0,0,0-.339-.339h-1.348a.339.339,0,0,0,0,.678h1.348A.339.339,0,0,0,110.934,3319.308Z" transform="translate(-97.26 -3307.532)" fill="#606161"/>
</svg>
