<svg xmlns="http://www.w3.org/2000/svg" width="21.973" height="21.892" viewBox="0 0 21.973 21.892">
  <g id="Group_586" data-name="Group 586" transform="translate(0.54 0.5)">
    <path id="_16" data-name="16" d="M10.12,20.567v-.654a.327.327,0,0,1,.653,0v.654a.327.327,0,0,1-.653,0Zm5.655-.33-.223-.613a.326.326,0,1,1,.613-.223l.224.614a.327.327,0,0,1-.614.223ZM4.7,20.431a.325.325,0,0,1-.195-.417l.224-.614a.326.326,0,1,1,.612.223l-.222.613a.327.327,0,0,1-.306.215A.323.323,0,0,1,4.7,20.431Zm15.584-.653-.327-.564a.327.327,0,0,1,.567-.327l.326.566a.326.326,0,1,1-.566.326ZM.164,19.9a.327.327,0,0,1-.12-.446l.327-.566a.327.327,0,1,1,.566.327l-.326.564a.326.326,0,0,1-.446.12Zm9.956-2.6v-.653a.327.327,0,0,1,.653,0V17.3a.327.327,0,0,1-.653,0Zm4.538-.132-.224-.614a.327.327,0,0,1,.614-.224l.224.614a.328.328,0,0,1-.2.418.32.32,0,0,1-.112.02A.326.326,0,0,1,14.658,17.17Zm-8.842.194a.327.327,0,0,1-.2-.418l.224-.614a.327.327,0,0,1,.615.224l-.224.614a.328.328,0,0,1-.307.214A.32.32,0,0,1,5.817,17.364Zm12.834-.413-.326-.564a.327.327,0,0,1,.566-.327l.326.566a.326.326,0,1,1-.566.325ZM1.8,17.071a.327.327,0,0,1-.12-.445L2,16.06a.326.326,0,0,1,.565.327l-.325.564a.328.328,0,0,1-.284.164A.324.324,0,0,1,1.8,17.071Zm8.324-3.033v-.653a.327.327,0,0,1,.653,0v.653a.327.327,0,0,1-.653,0Zm3.422.064-.224-.614a.326.326,0,1,1,.613-.223l.224.613a.326.326,0,0,1-.195.418.32.32,0,0,1-.112.02A.326.326,0,0,1,13.542,14.1ZM6.933,14.3a.326.326,0,0,1-.195-.418l.224-.613a.326.326,0,1,1,.613.223l-.224.614a.326.326,0,0,1-.307.214A.32.32,0,0,1,6.933,14.3Zm10.086-.171-.327-.566a.327.327,0,0,1,.567-.326l.325.565a.326.326,0,1,1-.565.327Zm-13.591.119a.327.327,0,0,1-.12-.446l.327-.565a.326.326,0,0,1,.565.326l-.326.566a.326.326,0,0,1-.446.119ZM4.244,11.1a.98.98,0,0,1-.009-1.959H4.6a5.631,5.631,0,0,1,5.847-5.223,5.631,5.631,0,0,1,5.846,5.223h.355a.98.98,0,1,1,0,1.959ZM10.12,2.938V1.959A1.959,1.959,0,0,1,12.079,0h5.876a.327.327,0,0,1,0,.653H12.079a1.306,1.306,0,0,0-1.305,1.306v.978Z" transform="translate(0 0)" fill="none" stroke="#707070" stroke-width="1"/>
  </g>
</svg>
