<svg xmlns="http://www.w3.org/2000/svg" width="19.312" height="19.28" viewBox="0 0 19.312 19.28">
  <path id="Path_607" data-name="Path 607" d="M466.716,3307.505a.4.4,0,0,0-.331-.079l-1.5.322a.391.391,0,0,0-.47-.322l-1.5.322a.4.4,0,0,0-.14-.243.4.4,0,0,0-.331-.079l-5.523,1.184a.4.4,0,0,0-.312.386v15.78a.4.4,0,0,0,.312.386l5.523,1.184a.392.392,0,0,0,.47-.322l1.5.322a.394.394,0,0,0,.331-.079.394.394,0,0,0,.139-.243l1.5.322a.395.395,0,0,0,.477-.386v-18.147A.4.4,0,0,0,466.716,3307.505Zm-.643,17.966-1.183-.253v-16.665l1.183-.253Zm-3.945,0-3.55-.761-1.183-.253v-15.143l1.183-.253,3.55-.761v17.171Zm1.973,0-1.183-.253v-16.665l1.183-.253v17.171Zm-12.671-3.232a.394.394,0,1,1-.571-.543,7,7,0,0,0-.052-9.6.395.395,0,0,1,.567-.55A7.791,7.791,0,0,1,451.429,3322.24Zm-2.8-2.885a.394.394,0,0,1-.572-.543,2.769,2.769,0,0,0-.02-3.8.395.395,0,0,1,.567-.55A3.567,3.567,0,0,1,448.629,3319.354Zm1.4,1.443a.394.394,0,1,1-.571-.544,4.881,4.881,0,0,0-.037-6.7.395.395,0,0,1,.567-.549A5.678,5.678,0,0,1,450.029,3320.8Zm5.116-.519a.388.388,0,0,1,.007.3,9.842,9.842,0,0,1-2.067,3.283.4.4,0,1,1-.572-.545,9.1,9.1,0,0,0,1.9-3.014v-.008a.4.4,0,0,1,.508-.225A.387.387,0,0,1,455.145,3320.278Zm-2.135-10.375a10.018,10.018,0,0,1,2.817,7.022c0,.154,0,.309-.012.458a.392.392,0,0,1-.394.375h-.016a.4.4,0,0,1-.379-.41c.008-.142.012-.285.012-.423a9.224,9.224,0,0,0-2.589-6.466l0,0a.394.394,0,0,1,.007-.56A.4.4,0,0,1,453.011,3309.9Zm2.545,8.81a.379.379,0,0,1,.059.288v.008a.4.4,0,0,1-.387.316.444.444,0,0,1-.079-.008.409.409,0,0,1-.252-.169.419.419,0,0,1-.055-.3.4.4,0,0,1,.466-.3A.369.369,0,0,1,455.556,3318.712Z" transform="translate(-447.721 -3307.245)" fill="none" stroke="#606161" stroke-linecap="round" stroke-linejoin="round" stroke-width="0.342"/>
</svg>
