<svg xmlns="http://www.w3.org/2000/svg" width="29.382" height="23.207" viewBox="0 0 29.382 23.207">
  <g id="Group_754" data-name="Group 754" transform="translate(-1370.84 -2170.337)">
    <g id="Group_756" data-name="Group 756">
      <path id="_31" data-name="31" d="M15.142,21.248c-1.1-.249-3.236-1.154-5.263-1.888a14.688,14.688,0,0,0-4.235-1.069,7.077,7.077,0,0,0-2,.293,6.673,6.673,0,0,0-1.415.6,8.383,8.383,0,0,0-1.293.953c-.08.067-.309.275-.309.275a.376.376,0,0,1-.255.1.37.37,0,0,1-.249-.642s.158-.154.284-.258c.066-.056.229-.2.468-.391a7.142,7.142,0,0,1,.835-.6,7.632,7.632,0,0,1,3.936-1.08c2.4-.034,7.445,2.4,9.5,2.935a14.287,14.287,0,0,0,5.266.072,6.331,6.331,0,0,0,.65-.148.371.371,0,0,1,.439.286.341.341,0,0,1,.009.079.372.372,0,0,1-.293.362,6.524,6.524,0,0,1-.8.173c-.575.079-1.3.16-2.09.19-.195.006-.393.012-.6.012h-.016A11.634,11.634,0,0,1,15.142,21.248Zm0-4.2c-1.1-.25-3.236-1.156-5.263-1.889a14.657,14.657,0,0,0-4.235-1.07,7.077,7.077,0,0,0-2,.293,6.673,6.673,0,0,0-1.415.6,8.249,8.249,0,0,0-1.293.955c-.08.065-.309.273-.309.273a.372.372,0,0,1-.255.1A.364.364,0,0,1,.1,16.2a.362.362,0,0,1-.1-.251.371.371,0,0,1,.119-.273s.158-.152.284-.256c.066-.056.229-.2.468-.39a7.292,7.292,0,0,1,.835-.6,7.65,7.65,0,0,1,3.936-1.08c2.4-.034,7.445,2.4,9.5,2.935a14.277,14.277,0,0,0,5.266.072,6.316,6.316,0,0,0,.65-.147.37.37,0,0,1,.439.285.345.345,0,0,1,.009.078.372.372,0,0,1-.293.362,6.477,6.477,0,0,1-.8.173c-.575.08-1.3.16-2.09.19-.2.008-.408.012-.617.012A11.693,11.693,0,0,1,15.142,17.052Zm3.4-4.072V11.127H11.125v1.111a.371.371,0,1,1-.742,0V2.6a2.6,2.6,0,1,1,5.192,0V4.08a.371.371,0,0,1-.742,0V2.6a1.854,1.854,0,1,0-3.709,0V6.676h7.418V2.6a2.6,2.6,0,1,1,5.192,0V4.08a.371.371,0,0,1-.742,0V2.6a1.854,1.854,0,1,0-3.708,0V12.98a.371.371,0,1,1-.742,0Zm0-2.595V7.418H11.125v2.967Z" transform="translate(1370.84 2170.337)" fill="#606161"/>
      <g id="Group_592" data-name="Group 592" transform="translate(1392.566 2173.848)">
        <path id="Path_584" data-name="Path 584" d="M1330.014,2135.412a3.7,3.7,0,0,1-3.7-3.7,3.763,3.763,0,0,1,1.514-2.882v-10.545a2.193,2.193,0,1,1,4.378,0v10.526a3.851,3.851,0,0,1,1.514,2.882A3.709,3.709,0,0,1,1330.014,2135.412Z" transform="translate(-1326.311 -2115.966)" fill="none" stroke="#3d3435" stroke-linecap="round" stroke-linejoin="round" stroke-width="0.5"/>
        <path id="Path_585" data-name="Path 585" d="M1332.309,2127.055h1.028m-1.028-2.5h1.028m-1.028-2.5h1.028m-1.028-2.5h1.028" transform="translate(-1326.417 -2116.03)" fill="none" stroke="#3d3435" stroke-linecap="round" stroke-linejoin="round" stroke-width="0.5"/>
        <path id="Path_586" data-name="Path 586" d="M1331.209,2131.971a1.149,1.149,0,1,1-1.149-1.149A1.145,1.145,0,0,1,1331.209,2131.971Z" transform="translate(-1326.357 -2116.228)" fill="none" stroke="#3d3435" stroke-linecap="round" stroke-linejoin="round" stroke-width="0.5"/>
        <line id="Line_52" data-name="Line 52" y2="10.498" transform="translate(3.703 4.023)" fill="none" stroke="#3d3435" stroke-linecap="round" stroke-linejoin="round" stroke-width="0.5"/>
      </g>
    </g>
  </g>
</svg>
