<svg xmlns="http://www.w3.org/2000/svg" width="36.548" height="25.289" viewBox="0 0 36.548 25.289">
  <path id="Path_348" data-name="Path 348" d="M1065.934,11218.861l-.021-.226a5.61,5.61,0,0,0-5.7-5.607c-4.07-.22-8.194-.329-12.256-.329s-8.185.109-12.264.33a5.609,5.609,0,0,0-5.692,5.621l-.019.211a70.709,70.709,0,0,0,.021,13.19,5.605,5.605,0,0,0,5.7,5.605c4.072.22,8.2.331,12.257.331s8.187-.111,12.263-.331a5.608,5.608,0,0,0,5.695-5.621,70.719,70.719,0,0,0,.021-13.175m-21.479,12.07v-10.751l9.554,5.376Z" transform="translate(-1029.683 -11212.699)" fill="#fff"/>
</svg>
